<svg fill="current" stroke="current" width="145" height="17" viewBox="0 0 145 17" fill="none" xmlns="http://www.w3.org/2000/svg">
<path d="M27.2279 3.70851C26.9039 4.81835 26.5449 5.92819 26.1773 7.02042C25.8183 8.09504 25.4419 9.16084 25.0566 10.2002C24.7764 10.9665 24.4962 11.6712 24.2336 12.323C23.971 11.68 23.6996 10.9665 23.4106 10.2002C23.0342 9.17845 22.6577 8.11264 22.2901 7.02042C21.931 5.94581 21.5721 4.83597 21.2394 3.70851C20.9155 2.59865 20.3377 0.352539 20.3377 0.352539H16.7568L16.8531 0.70487C17.6324 3.63803 18.5604 6.49192 19.611 9.18726C20.6616 11.8826 21.6859 14.3225 22.6665 16.4453L22.7453 16.6038H25.6169L25.6957 16.4453C26.6763 14.3136 27.7006 11.8738 28.7512 9.18726C29.8018 6.49192 30.7298 3.63803 31.5091 0.70487L31.6054 0.352539H28.1472C28.1296 0.361348 27.5517 2.60747 27.2279 3.70851Z" fill="current"/>
<path d="M61.4249 0.493187C61.2937 0.449146 61.101 0.405105 60.8383 0.352255C60.5844 0.299405 60.3043 0.246555 60.0067 0.202514C59.7002 0.149664 59.385 0.105622 59.0699 0.0791976C58.7547 0.0439645 58.4657 0.0351562 58.2206 0.0351562C56.9861 0.0351562 55.8567 0.140856 54.8587 0.361063C53.8694 0.572462 53.0289 0.810286 52.3636 1.04811L52.1797 1.11858V16.6124H55.5241V3.36468C55.7079 3.32065 55.9706 3.26779 56.3121 3.18852C56.8024 3.08282 57.3014 3.02997 57.8004 3.02997C58.5796 3.02997 59.2187 3.08282 59.709 3.18852C60.1993 3.29422 60.5582 3.39112 60.7683 3.46158L61.0747 3.57609L61.6613 0.572462L61.4249 0.493187Z" fill="current"/>
<path d="M14.1655 0.326172H0.140079C0.140079 0.326172 0 0.872286 0 1.97333V2.04379C0 3.14483 0.140079 3.69094 0.140079 3.69094H14.1655C14.1655 3.69094 14.3056 3.14483 14.3056 2.04379V1.97333C14.3056 0.872286 14.1655 0.326172 14.1655 0.326172Z" fill="current"/>
<path d="M48.3628 0.326172H34.3374C34.3374 0.326172 34.1973 0.872286 34.1973 1.97333V2.04379C34.1973 3.14483 34.3374 3.69094 34.3374 3.69094H48.3628C48.3628 3.69094 48.5029 3.14483 48.5029 2.04379V1.97333C48.5029 0.872286 48.3628 0.326172 48.3628 0.326172Z" fill="current"/>
<path d="M14.1655 6.13867H0.140079C0.140079 6.13867 0 6.68479 0 7.78583V7.85629C0 8.56976 0.0525298 9.30085 0.0525298 9.30085C0.10506 10.1905 0.280159 10.992 0.516544 11.7671C0.831724 12.7977 1.322 13.705 1.97862 14.4625C2.63525 15.22 3.48448 15.8278 4.50882 16.2594C5.52439 16.691 6.74134 16.9113 8.12462 16.92C8.36976 16.92 8.60614 16.92 8.84253 16.9113L8.23843 13.8812C6.69756 13.8371 5.5419 13.4408 4.824 12.6832C4.1236 11.9521 3.69461 10.8775 3.55452 9.50344H14.1744C14.1744 9.50344 14.3144 8.95733 14.3144 7.85629V7.78583C14.3056 6.68479 14.1655 6.13867 14.1655 6.13867Z" fill="current"/>
<path d="M48.3628 6.13867H34.3373C34.3373 6.13867 34.1973 6.68479 34.1973 7.78583V7.85629C34.1973 8.56976 34.2498 9.30085 34.2498 9.30085C34.3023 10.1905 34.4773 10.992 34.7138 11.7671C35.0289 12.7977 35.5192 13.705 36.1759 14.4625C36.8325 15.22 37.6817 15.8278 38.706 16.2594C39.7216 16.691 40.9385 16.9113 42.3218 16.92C42.5669 16.92 42.8033 16.92 43.0397 16.9113L42.4357 13.8812C40.8947 13.8371 39.7391 13.4408 39.0212 12.6832C38.3208 11.9521 37.8919 10.8775 37.7518 9.50344H48.3715C48.3715 9.50344 48.5116 8.95733 48.5116 7.85629V7.78583C48.5029 6.68479 48.3628 6.13867 48.3628 6.13867Z" fill="current"/>
<path d="M66.6692 0.352539H65.0059V16.6831H74.2685V15.2297H66.6692V0.352539Z" fill="current"/>
<path d="M78.1381 8.82611H85.0458V7.39037H78.1381V1.81472H85.8862V0.352539H76.4834V16.6831H86.4903V15.2297H78.1381V8.82611Z" fill="current"/>
<path d="M99.5963 2.2897C98.8083 1.60265 97.8628 1.07415 96.7772 0.730626C95.6916 0.387103 94.4746 0.210938 93.1789 0.210938C92.5222 0.210938 91.8306 0.24617 91.1215 0.316637C90.4122 0.387103 89.7732 0.50161 89.2304 0.66016L89.2041 0.668968V16.4006L89.2304 16.4094C89.7732 16.5503 90.4122 16.6561 91.1215 16.7265C91.8306 16.797 92.5222 16.8321 93.1789 16.8321C94.4834 16.8321 95.6916 16.6561 96.7772 16.3125C97.8628 15.969 98.8171 15.4493 99.5963 14.7534C100.384 14.0664 100.997 13.1944 101.435 12.155C101.873 11.1244 102.091 9.89125 102.091 8.50835C102.091 7.13425 101.873 5.9099 101.435 4.87933C100.997 3.84877 100.384 2.97675 99.5963 2.2897ZM100.34 8.50835C100.34 9.56534 100.192 10.5254 99.9027 11.3711C99.6138 12.2167 99.1673 12.9389 98.5807 13.5291C97.9941 14.1192 97.2675 14.5772 96.4007 14.8944C95.5339 15.2115 94.5097 15.37 93.354 15.37C92.5222 15.37 91.9007 15.3436 91.5242 15.2995C91.174 15.2555 90.9463 15.2291 90.8413 15.2115V1.83167C90.9552 1.81405 91.1915 1.77881 91.5242 1.74358C91.9007 1.69954 92.5135 1.67312 93.354 1.67312C94.5097 1.67312 95.5339 1.83167 96.4007 2.14877C97.2587 2.46586 97.9941 2.92389 98.5807 3.51405C99.1673 4.10421 99.6138 4.82648 99.9027 5.66327C100.192 6.49125 100.34 7.45135 100.34 8.50835Z" fill="current"/>
<path d="M115.408 15.1678C115.216 15.2383 114.865 15.3176 114.358 15.4057C113.824 15.4938 113.158 15.5378 112.371 15.5378C111.399 15.5378 110.532 15.3705 109.797 15.0445C109.061 14.7186 108.431 14.243 107.932 13.6352C107.433 13.0275 107.056 12.2787 106.811 11.4156C106.566 10.5523 106.443 9.57461 106.443 8.5C106.443 7.35492 106.592 6.33316 106.899 5.46114C107.196 4.59793 107.617 3.85803 108.142 3.26787C108.667 2.67773 109.289 2.2373 109.998 1.93782C110.707 1.64715 111.469 1.49741 112.274 1.49741C113.141 1.49741 113.946 1.5943 114.691 1.78808C115.426 1.98186 116.022 2.2373 116.451 2.5456L116.485 2.57202L117.037 1.1715L117.046 1.14508L117.019 1.12746C116.661 0.889637 116.083 0.643005 115.312 0.387565C114.533 0.132124 113.535 0 112.335 0C111.294 0 110.304 0.193782 109.385 0.56373C108.466 0.942487 107.652 1.4886 106.96 2.20207C106.268 2.91554 105.708 3.81399 105.305 4.86218C104.903 5.91917 104.692 7.14352 104.692 8.5C104.692 9.85648 104.885 11.0808 105.253 12.1378C105.629 13.1948 106.155 14.0932 106.811 14.7979C107.468 15.5114 108.264 16.0576 109.166 16.4363C110.068 16.815 111.057 17 112.116 17C113.369 17 114.445 16.9031 115.312 16.7093C116.17 16.5156 116.757 16.3481 117.055 16.2249L117.072 16.2161V8.90519H115.417V15.1678H115.408Z" fill="current"/>
<path d="M122.098 8.82611H129.005V7.39037H122.098V1.81472H129.846V0.352539H120.443V16.6831H130.45V15.2297H122.098V8.82611Z" fill="current"/>
<path d="M144.973 16.6384C144.694 16.013 144.352 15.3523 143.95 14.6654C143.547 13.9783 143.127 13.3089 142.714 12.6835C142.294 12.0493 141.883 11.4591 141.489 10.9306C141.121 10.4374 140.806 10.0234 140.553 9.70627C141.577 9.38918 142.408 8.87829 143.038 8.18244C143.679 7.47777 144.002 6.50006 144.002 5.27571C144.002 3.61094 143.424 2.34255 142.294 1.48815C141.165 0.642544 139.467 0.210938 137.252 0.210938C136.613 0.210938 135.912 0.24617 135.16 0.316637C134.407 0.387103 133.741 0.50161 133.181 0.66016L133.154 0.668968V16.6913H134.809V10.1203H137.384C137.873 10.1203 138.372 10.0938 138.863 10.0498L139.835 11.3446C140.211 11.8467 140.596 12.3928 140.991 12.9741C141.384 13.5555 141.769 14.1632 142.155 14.7886C142.531 15.414 142.89 16.0394 143.214 16.6648L143.223 16.6824H145L144.973 16.6384ZM141.857 7.0814C141.585 7.53063 141.201 7.87416 140.727 8.11198C140.255 8.3498 139.686 8.50835 139.038 8.57881C138.39 8.64928 137.69 8.68451 136.963 8.68451H134.809V1.83167C135.107 1.80525 135.466 1.77001 135.886 1.72597C136.332 1.69074 136.85 1.6643 137.436 1.6643C138.048 1.6643 138.662 1.71716 139.239 1.81405C139.817 1.91094 140.334 2.10473 140.78 2.36897C141.226 2.64203 141.585 3.01198 141.865 3.47001C142.137 3.92804 142.278 4.527 142.278 5.23167C142.269 6.01561 142.137 6.63219 141.857 7.0814Z" fill="current"/>
</svg>
